HIERARCHY
ROOT Hips
{
	OFFSET 0.000000 0.000000 0.000000
	CHANNELS 6 Xposition Yposition Zposition Zrotation Yrotation Xrotation 
	JOINT LHipJoint
	{
		OFFSET 0.000000 0.000000 0.000000
		CHANNELS 3 Zrotation Yrotation Xrotation
		JOINT LeftUpLeg
		{
			OFFSET 1.363060 -1.794630 0.839290
			CHANNELS 3 Zrotation Yrotation Xrotation
			JOINT LeftLeg
			{
				OFFSET 2.448110 -6.726130 0.000000
				CHANNELS 3 Zrotation Yrotation Xrotation
				JOINT LeftFoot
				{
					OFFSET 2.562200 -7.039590 0.000000
					CHANNELS 3 Zrotation Yrotation Xrotation
					JOINT LeftToeBase
					{
						OFFSET 0.157640 -0.433110 2.322550
						CHANNELS 3 Zrotation Yrotation Xrotation
						End Site
						{
							OFFSET 0.000000 0.000000 0.000000
						}
					}
				}
			}
		}
	}
	JOINT RHipJoint
	{
		OFFSET 0.000000 0.000000 0.000000
		CHANNELS 3 Zrotation Yrotation Xrotation
		JOINT RightUpLeg
		{
			OFFSET -1.305520 -1.794630 0.839290
			CHANNELS 3 Zrotation Yrotation Xrotation
			JOINT RightLeg
			{
				OFFSET -2.542530 -6.985550 0.000000
				CHANNELS 3 Zrotation Yrotation Xrotation
				JOINT RightFoot
				{
					OFFSET -2.568260 -7.056230 0.000000
					CHANNELS 3 Zrotation Yrotation Xrotation
					JOINT RightToeBase
					{
						OFFSET -0.164730 -0.452590 2.363150
						CHANNELS 3 Zrotation Yrotation Xrotation
						End Site
						{
							OFFSET 0.000000 0.000000 0.000000
						}
					}
				}
			}
		}
	}
	JOINT LowerBack
	{
		OFFSET 0.000000 0.000000 0.000000
		CHANNELS 3 Zrotation Yrotation Xrotation
		JOINT Spine
		{
			OFFSET 0.028270 2.035590 -0.193380
			CHANNELS 3 Zrotation Yrotation Xrotation
			JOINT Spine1
			{
				OFFSET 0.056720 2.048850 -0.042750
				CHANNELS 3 Zrotation Yrotation Xrotation
				JOINT Neck
				{
					OFFSET 0.000000 0.000000 0.000000
					CHANNELS 3 Zrotation Yrotation Xrotation
					JOINT Neck1
					{
						OFFSET -0.054170 1.746240 0.172020
						CHANNELS 3 Zrotation Yrotation Xrotation
						JOINT Head
						{
							OFFSET 0.104070 1.761360 -0.123970
							CHANNELS 3 Zrotation Yrotation Xrotation
							End Site
							{
								OFFSET 0.000000 0.000000 0.000000
							}
						}
					}
				}
				JOINT LeftShoulder
				{
					OFFSET 0.000000 0.000000 0.000000
					CHANNELS 3 Zrotation Yrotation Xrotation
					JOINT LeftArm
					{
						OFFSET 3.362410 1.200890 -0.311210
						CHANNELS 3 Zrotation Yrotation Xrotation
						JOINT LeftForeArm
						{
							OFFSET 4.983000 -0.000000 -0.000000
							CHANNELS 3 Zrotation Yrotation Xrotation
							JOINT LeftHand
							{
								OFFSET 3.483560 -0.000000 -0.000000
								CHANNELS 3 Zrotation Yrotation Xrotation
								JOINT LeftFingerBase
								{
									OFFSET 0.000000 0.000000 0.000000
									CHANNELS 3 Zrotation Yrotation Xrotation
									JOINT LeftHandIndex1
									{
										OFFSET 0.715260 -0.000000 -0.000000
										CHANNELS 3 Zrotation Yrotation Xrotation
										End Site
										{
											OFFSET 0.000000 0.000000 0.000000
										}
									}
								}
								JOINT LThumb
								{
									OFFSET 0.000000 0.000000 0.000000
									CHANNELS 3 Zrotation Yrotation Xrotation
									End Site
									{
										OFFSET 0.000000 0.000000 0.000000
									}
								}
							}
						}
					}
				}
				JOINT RightShoulder
				{
					OFFSET 0.000000 0.000000 0.000000
					CHANNELS 3 Zrotation Yrotation Xrotation
					JOINT RightArm
					{
						OFFSET -3.136600 1.374050 -0.404650
						CHANNELS 3 Zrotation Yrotation Xrotation
						JOINT RightForeArm
						{
							OFFSET -5.241900 -0.000000 -0.000000
							CHANNELS 3 Zrotation Yrotation Xrotation
							JOINT RightHand
							{
								OFFSET -3.444170 -0.000000 -0.000000
								CHANNELS 3 Zrotation Yrotation Xrotation
								JOINT RightFingerBase
								{
									OFFSET 0.000000 0.000000 0.000000
									CHANNELS 3 Zrotation Yrotation Xrotation
									JOINT RightHandIndex1
									{
										OFFSET -0.622530 -0.000000 -0.000000
										CHANNELS 3 Zrotation Yrotation Xrotation
										End Site
										{
											OFFSET 0.000000 0.000000 0.000000
										}
									}
								}
								JOINT RThumb
								{
									OFFSET 0.000000 0.000000 0.000000
									CHANNELS 3 Zrotation Yrotation Xrotation
									End Site
									{
										OFFSET 0.000000 0.000000 0.000000
									}
								}
							}
						}
					}
				}
			}
		}
	}
}
MOTION
Frames: 7
Frame Time: 0.008333
10.611592 13.752462 40.459159 -165.933154 63.190439 -159.143933 12.324262 0.620734 -13.160196 -25.836550 -9.934157 -43.283914 -0.292262 28.074408 59.989196 -33.843686 -46.919020 29.910344 -60.821399 23.554040 -147.166387 33.178564 13.741492 -5.178046 10.857954 -29.699303 -67.130593 35.132196 -15.009341 99.867780 168.508447 13.644455 -7.104436 -98.846053 5.685282 -98.534411 -24.896403 -6.372642 21.869714 4.460507 -0.182508 -3.215176 7.342896 0.614057 26.281118 -3.929493 1.914687 -24.497802 3.378456 2.847917 15.371495 1.640505 9.378337 -14.349425 16.106328 18.480444 7.043493 -81.863029 -32.368637 18.775498 41.764893 -68.005252 12.053476 5.871986 -36.211737 3.171209 0.000001 -0.000001 -0.000001 0.000000 0.000000 0.000000 0.000000 0.000000 -0.000000 -13.376489 -6.492949 9.612822 54.232571 27.211294 -91.643452 -4.342265 31.851087 11.494638 13.596681 9.791156 2.800889 0.000002 0.000001 -0.000002 -0.000000 0.000000 -0.000000 0.000000 -0.000000 0.000000 
10.623333 13.747252 40.556306 -167.030050 62.180972 -160.274990 11.765160 0.053746 -13.245325 -24.599418 -9.260969 -43.943984 -2.013757 27.666726 60.660482 -30.376832 -46.248384 26.116951 -52.206863 24.622653 -141.598981 32.988984 13.593215 -5.564901 11.327125 -29.836782 -67.091033 -7.260206 -11.733380 92.921499 -165.226845 -18.267807 -34.362420 -97.433088 1.638438 -101.222647 -25.388966 -6.565036 22.493814 4.457605 -0.151116 -3.223312 7.324901 0.274345 25.715190 -4.050405 1.975889 -23.917363 3.273347 2.911299 15.426682 1.177825 9.362818 -15.377926 15.881888 18.952654 7.091908 -81.664944 -31.151457 17.433311 36.489414 -67.715512 17.016949 9.125244 -36.097137 2.032278 0.000001 -0.000001 -0.000001 -0.000000 0.000000 -0.000000 0.000000 0.000000 -0.000000 -13.771086 -5.279314 9.809816 53.989065 27.307195 -96.792569 -6.249643 31.570739 8.554380 17.403259 4.613906 1.653660 0.000002 0.000001 -0.000002 0.000000 -0.000000 0.000000 0.000000 0.000000 0.000000 
10.645826 13.718393 40.652102 -167.968102 60.755424 -161.251112 11.645711 -0.529679 -13.632621 -24.075814 -8.473893 -44.230192 -2.156336 27.325787 61.858079 -31.113447 -39.629644 25.517916 -48.831285 25.526500 -138.750860 32.352660 14.055899 -6.129396 11.595623 -30.169747 -66.704551 -23.634784 -13.369504 89.731562 -149.998782 -19.901780 -59.453410 -92.717431 -3.237989 -104.358519 -25.643778 -7.028257 23.156706 4.408254 -0.146840 -3.290423 7.942536 -0.067189 25.915285 -4.624993 1.863029 -24.225890 3.149346 2.949112 15.807399 0.323852 9.088018 -16.791411 15.511009 20.300615 8.144856 -82.172238 -31.280545 16.525242 30.270709 -67.281444 21.728304 10.609310 -36.216344 1.539086 0.000001 -0.000001 -0.000001 0.000000 0.000000 -0.000000 -0.000000 0.000000 0.000000 -14.834296 -5.044987 9.595281 54.370475 27.782651 -101.320496 -7.324719 31.427924 4.619869 20.503276 -2.667601 -0.564560 0.000002 0.000001 -0.000002 0.000000 0.000000 0.000000 0.000000 0.000000 0.000000 
10.669655 13.688348 40.737087 -168.155404 59.322408 -161.481676 11.833856 -1.062363 -13.979791 -23.561099 -7.707625 -44.648206 -1.727885 27.294343 63.053878 -28.142272 -35.527566 23.037258 -59.412071 25.974925 -141.824954 31.698985 14.358604 -6.718149 12.581724 -30.324026 -66.642467 -34.605654 -15.550249 87.894652 -143.921632 -11.254442 -78.801774 -86.321353 -7.195787 -107.168684 -25.351920 -7.126508 23.637096 4.329720 0.242638 -3.357259 8.760928 -0.274559 25.318963 -5.323964 1.850457 -23.800185 3.131964 3.020095 16.250945 -0.416062 9.188025 -17.024763 15.394956 19.965328 8.098195 -82.498773 -29.825882 14.905599 23.982043 -66.585389 20.415176 6.228323 -32.400124 2.791085 0.000001 -0.000001 -0.000001 0.000000 0.000000 0.000000 0.000000 -0.000000 0.000000 -15.750074 -5.168496 9.670143 54.699489 27.549765 -105.630400 -8.549204 31.495213 -0.581502 22.251031 -12.376983 -3.974589 0.000002 0.000001 -0.000002 -0.000000 -0.000000 -0.000000 -0.000000 0.000000 -0.000000 
10.681486 13.696291 40.804655 -167.826614 58.275448 -161.189437 11.716470 -1.726858 -13.993423 -21.679981 -7.364891 -45.121235 -1.353429 28.414509 63.447948 -17.655616 -35.242697 17.454513 -69.960810 25.991477 -144.398695 31.032726 14.509781 -7.362211 13.762478 -30.188067 -66.196489 -41.430344 -18.185607 86.407936 -147.242675 -0.999743 -92.282849 -80.453606 -9.475395 -109.084925 -24.953253 -6.789134 24.072894 4.297680 1.417494 -3.447574 9.208107 0.018309 24.757229 -5.369476 1.795562 -23.511389 3.137126 2.954525 16.792699 -0.079929 9.396510 -15.370223 15.523318 18.325810 6.895587 -82.633525 -27.988187 13.789555 20.244020 -65.127778 20.496047 5.952429 -30.008579 2.587631 0.000001 -0.000001 -0.000001 0.000000 -0.000000 0.000000 0.000000 -0.000000 0.000000 -15.291341 -6.215036 10.283609 54.393239 27.756430 -110.032318 -10.073565 31.897835 -7.221929 21.865156 -24.367704 -8.169796 0.000002 0.000001 -0.000002 -0.000000 0.000000 -0.000000 0.000000 0.000000 0.000000 
10.681021 13.709159 40.857808 -167.217503 57.618375 -160.941361 11.393984 -2.014465 -13.872419 -20.030162 -6.656365 -45.519649 -0.356821 29.112995 64.239677 -10.273147 -33.976456 13.830273 -75.267864 25.768468 -146.077887 30.223767 14.530199 -7.907430 14.846635 -29.771225 -65.055563 -44.852242 -21.205431 85.457654 -154.395199 7.105128 -101.583520 -75.961356 -10.575112 -110.144842 -24.872229 -6.941244 24.693989 4.275008 1.987933 -3.507272 8.072564 0.101356 25.346693 -4.143634 1.628948 -24.242299 2.905803 2.662289 17.123388 0.544073 8.586235 -16.290980 15.955626 19.843953 7.574885 -82.581608 -28.514758 12.235526 15.554574 -63.539286 23.721593 3.198664 -31.507320 3.561740 0.000001 -0.000001 -0.000001 -0.000000 0.000000 0.000000 -0.000000 0.000000 -0.000000 -14.109881 -5.685379 10.094944 54.019847 28.788976 -113.742307 -11.808244 32.189780 -15.040546 18.488269 -37.268601 -11.749644 0.000002 0.000001 -0.000002 0.000000 0.000000 0.000000 -0.000000 0.000000 0.000000 
10.682823 13.698859 40.905105 -166.632226 56.823393 -160.829577 11.718655 -2.114849 -13.960697 -18.906667 -6.121146 -45.872253 0.871409 29.594376 65.996863 -8.020199 -31.830847 10.722023 -69.614558 25.201604 -145.831976 29.610191 14.794612 -8.380957 15.691432 -29.567570 -64.182434 -46.889921 -23.693411 85.479294 -158.309900 14.347390 -108.862912 -72.856099 -10.994956 -110.588216 -25.324499 -7.722847 25.304850 4.132478 1.810363 -3.495647 6.017133 0.255453 24.831916 -2.271982 1.550640 -23.767809 3.001071 2.280654 16.959353 -0.599963 8.027899 -18.016928 17.979903 21.834884 8.702567 -81.810308 -27.275045 9.748796 11.541679 -61.278565 26.830176 1.764263 -33.035382 4.186994 0.000001 -0.000001 -0.000001 0.000000 -0.000000 -0.000000 0.000000 0.000000 0.000000 -13.636636 -3.471999 9.409974 55.516857 28.929151 -115.822930 -12.724515 31.857238 -23.733775 9.752280 -49.406747 -11.887339 0.000002 0.000001 -0.000002 0.000000 0.000000 0.000000 0.000000 0.000000 -0.000000 
